<svg width="14" height="16" viewBox="0 0 14 16" fill="none" xmlns="http://www.w3.org/2000/svg">
<path d="M13.1925 12.3816C12.8091 12.3816 12.4838 12.6479 12.4025 13.0185L9.35273 12.8738C9.36435 12.8159 9.37016 12.7579 9.37016 12.7C9.37016 12.5958 9.35273 12.4916 9.32369 12.3874L10.4332 11.7504C10.7062 12.0863 11.2 12.1557 11.5543 11.901C11.9087 11.6462 12.0016 11.1598 11.7635 10.795C11.5253 10.4302 11.0432 10.3144 10.6656 10.5287C10.288 10.7429 10.1428 11.2177 10.3403 11.6057L9.2656 12.2252C9.01 11.6867 8.37682 11.4435 7.82497 11.6694C7.27311 11.8952 6.99428 12.5148 7.19179 13.0764L5.19349 13.557C5.18187 13.2849 5.06569 13.0301 4.874 12.8332L5.23415 12.3353C5.64078 12.4742 6.08808 12.2716 6.25073 11.872C6.41338 11.4725 6.2333 11.015 5.8441 10.8355C5.4549 10.6502 4.98437 10.8066 4.78105 11.183C4.57774 11.5593 4.70553 12.0342 5.0715 12.26L4.74039 12.7174C4.50803 12.5437 4.21177 12.4684 3.92132 12.5032L3.57859 10.5518C4.00846 10.4592 4.33957 10.1233 4.43251 9.70062C4.52546 9.27214 4.3628 8.83207 4.01426 8.5715C3.66572 8.30514 3.1952 8.2704 2.8118 8.47306L1.94626 6.78806C2.13215 6.69541 2.28318 6.55065 2.39355 6.37694L3.11387 6.56803C3.10806 6.60856 3.10225 6.6433 3.10225 6.68383C3.10225 7.10074 3.42175 7.45395 3.83999 7.49449C4.25824 7.53502 4.64164 7.25129 4.71715 6.83438C4.79267 6.41748 4.54288 6.01794 4.13625 5.90792C3.72962 5.79211 3.30557 6.00636 3.15453 6.4001L2.47488 6.2206C2.56782 6.00057 2.58525 5.75737 2.52716 5.52576L4.53127 4.60508C4.90304 5.06832 5.57688 5.16675 6.06484 4.81933C6.5528 4.4719 6.68059 3.80601 6.35529 3.30804L7.63327 2.0631C7.79011 2.16154 7.97019 2.22523 8.15027 2.23682V2.7869C7.72621 2.83323 7.40672 3.20381 7.42995 3.6323C7.45319 4.06079 7.80754 4.39663 8.23741 4.39663C8.66727 4.39663 9.02162 4.06079 9.04486 3.6323C9.06809 3.20381 8.75441 2.83323 8.32454 2.7869V2.23682C8.48719 2.22523 8.63823 2.17891 8.77764 2.10364L10.1776 3.69599C9.85231 4.12448 9.87554 4.72089 10.2299 5.12043C10.59 5.51997 11.1826 5.61261 11.6473 5.33467C12.112 5.05673 12.3095 4.49507 12.1294 3.9913L12.5651 3.74811C12.8439 4.07237 13.3261 4.13027 13.6688 3.8697C14.0115 3.61493 14.0929 3.13433 13.8547 2.78111C13.6165 2.4279 13.1402 2.31788 12.7742 2.53792C12.4083 2.75795 12.2747 3.22118 12.4722 3.60335L12.0597 3.83496C11.8913 3.52807 11.5892 3.31962 11.2465 3.2675C10.9037 3.21539 10.5494 3.32541 10.2996 3.5686L8.92868 2.01099C9.06228 1.90676 9.17265 1.76779 9.24817 1.61724L10.4506 1.81412C10.5436 2.23102 10.9502 2.50317 11.3685 2.4279C11.7925 2.35841 12.083 1.97046 12.0365 1.54776C11.99 1.12506 11.6182 0.806589 11.1942 0.829751C10.7643 0.852912 10.4332 1.20034 10.4274 1.62882L9.31207 1.44353C9.46891 0.910816 9.21332 0.343358 8.70793 0.105952C8.20255 -0.131454 7.60422 0.0422581 7.29635 0.505489C6.98847 0.96872 7.0698 1.58829 7.48804 1.95888L6.24492 3.16907C6.05322 2.94903 5.7802 2.81006 5.48975 2.7869V1.94151C5.91381 1.89518 6.2333 1.5246 6.21007 1.09611C6.18683 0.66762 5.83829 0.337568 5.40842 0.337568C4.97856 0.337568 4.62421 0.67341 4.60097 1.1019C4.57774 1.53039 4.89142 1.90097 5.32129 1.9473V2.7869C4.93789 2.81585 4.59516 3.04168 4.41509 3.37752C4.23501 3.71915 4.24082 4.12448 4.43251 4.46032L2.48069 5.35204C2.41098 5.18412 2.30061 5.03936 2.16119 4.92356L2.92217 3.55702C2.99188 3.57439 3.05578 3.58598 3.12549 3.58598C3.53793 3.58598 3.88066 3.27908 3.93294 2.87376C3.98522 2.46843 3.71801 2.09206 3.32299 1.99362C2.92217 1.89518 2.51554 2.10943 2.37032 2.49159C2.22509 2.87376 2.39355 3.30225 2.75371 3.49333L2.01597 4.82512C1.56868 4.55876 1.0052 4.63404 0.639237 5.00462C0.279079 5.37521 0.21518 5.93687 0.488203 6.37694C0.761226 6.81701 1.29565 7.01389 1.78942 6.85754L2.66658 8.56571C2.44584 8.72784 2.28899 8.97104 2.23671 9.23739L1.59772 9.0521C1.61515 8.98841 1.62096 8.91892 1.62096 8.85523C1.62096 8.44411 1.31308 8.10248 0.906451 8.05615C0.499821 8.00983 0.122236 8.2704 0.0234832 8.66994C-0.0752697 9.06947 0.145472 9.4748 0.534675 9.61377C0.918069 9.75274 1.34793 9.58482 1.53382 9.22002L2.21348 9.4169C2.21348 9.43427 2.21348 9.45164 2.21348 9.46901C2.21348 9.85117 2.40517 10.2044 2.73048 10.4071L2.2948 10.9745C1.97531 10.6908 1.48735 10.7082 1.18528 11.015C0.883215 11.3219 0.871597 11.8025 1.16205 12.121C1.4525 12.4395 1.93464 12.4742 2.27157 12.2021C2.60849 11.9299 2.66658 11.4493 2.41679 11.1019L2.88732 10.4881C3.02673 10.5518 3.18358 10.5808 3.34042 10.5808C3.36366 10.5808 3.38689 10.5808 3.41013 10.575L3.75867 12.5379C3.29395 12.6769 2.96864 13.0996 2.95122 13.5802C2.9396 14.0666 3.24167 14.5009 3.70058 14.663C4.15949 14.8251 4.67068 14.6746 4.96694 14.2866L6.59346 15.0104C6.58184 15.0683 6.57022 15.132 6.57022 15.1899C6.57022 15.601 6.8781 15.9485 7.29054 15.9948C7.70298 16.0411 8.08056 15.7747 8.17351 15.3752C8.26645 14.9757 8.0399 14.5703 7.6507 14.4314C7.26149 14.2924 6.83163 14.4719 6.65155 14.8425L5.06569 14.1361C5.1354 14.0087 5.18187 13.8697 5.19349 13.7249L7.26149 13.2212C7.41834 13.5107 7.69717 13.7134 8.02247 13.7828C8.34778 13.8465 8.6847 13.7655 8.94029 13.5628L9.71289 14.2287C9.53281 14.6225 9.68965 15.0857 10.073 15.2826C10.4564 15.4852 10.927 15.352 11.1477 14.9815C11.3685 14.6109 11.2639 14.1361 10.9095 13.8929C10.5494 13.6497 10.0672 13.7307 9.80583 14.0724L9.06809 13.4412C9.17846 13.3254 9.25979 13.1806 9.31207 13.0301L12.385 13.1806C12.3908 13.6265 12.751 13.9797 13.1983 13.9797C13.6456 13.9797 14.0057 13.6149 13.9999 13.1749C13.9999 12.7406 13.6398 12.3816 13.1925 12.3816Z" fill="white"/>
</svg>
